<svg xmlns="http://www.w3.org/2000/svg" viewBox="0 0 930.10001 1031.60007">
  <defs>
    <style>
      .cls-1 {
        fill: #8ed6fb;
      }

      .cls-2 {
        fill: #1c78c0;
      }
    </style>
  </defs>
  <g id="レイヤー_2" data-name="レイヤー 2">
    <g id="レイヤー_1-2" data-name="レイヤー 1">
      <g>
        <path class="cls-1" d="M901.5,795.1l-418.1,236.50006v-184.2l260.5-143.3Zm28.6-25.9V274.6l-153,88.3V680.8ZM28.6,795.1l418.1,236.50006v-184.2l-260.5-143.3ZM0,769.2V274.6l153,88.3V680.8ZM17.9,242.6,446.7,0V178.1L172,329.2l-2.1,1.2Zm894.3,0L483.4,0V178.1L758.1,329.2l2.1,1.2Z"/>
        <path class="cls-2" d="M446.7,805.5l-257-141.3v-280l257,148.4Zm36.7,0,257-141.3v-280l-257,148.4Zm-276.3-453.7,258-141.9,258,141.9-258,149Z"/>
      </g>
    </g>
  </g>
</svg>
